/* XPM */
static char *_7b9aa25da854f928b1aa81123ee84cafZErK0bhUfZkrdjB[] = {
/* columns rows colors chars-per-pixel */
"40 40 201 2 ",
"   c None",
".  c #010000",
"X  c #0A0000",
"o  c #140000",
"O  c #1C0002",
"+  c #220005",
"@  c #250008",
"#  c #2B000A",
"$  c #32000D",
"%  c #350011",
"&  c #3B0014",
"*  c #3E0019",
"=  c #400017",
"-  c #43001C",
";  c #49001E",
":  c #450021",
">  c #4C0025",
",  c #4E0029",
"<  c #53012D",
"1  c #520027",
"2  c #560132",
"3  c #5A0134",
"4  c #5D023B",
"5  c #62033E",
"6  c #0F0078",
"7  c #13007D",
"8  c #5F0441",
"9  c #640344",
"0  c #67074B",
"q  c #6B044C",
"w  c #67084E",
"e  c #6A084E",
"r  c #6C0752",
"t  c #6B0954",
"y  c #6E0B5A",
"u  c #700755",
"i  c #730759",
"p  c #73095C",
"a  c #730855",
"s  c #760C64",
"d  c #770F6B",
"f  c #7B0B6C",
"g  c #790865",
"h  c #77106B",
"j  c #79106C",
"k  c #7E0D71",
"l  c #7C0F7B",
"z  c #7B1175",
"x  c #7E127C",
"c  c #810C6F",
"v  c #810E71",
"b  c #840E7D",
"n  c #83147D",
"m  c #831077",
"M  c #140082",
"N  c #1A0086",
"B  c #1D008C",
"V  c #1F0091",
"C  c #21008C",
"Z  c #240194",
"A  c #290297",
"S  c #26019B",
"D  c #2B039C",
"F  c #2D02A3",
"G  c #3204A6",
"H  c #3404AB",
"J  c #3807AC",
"K  c #3808AC",
"L  c #3604B1",
"P  c #3C06B4",
"I  c #3E0BB2",
"U  c #3E06B9",
"Y  c #3F09B9",
"T  c #7D1483",
"R  c #7E1689",
"E  c #7B188E",
"W  c #7E1691",
"Q  c #7B1798",
"!  c #420AB6",
"~  c #4206BA",
"^  c #440ABD",
"/  c #4A0BBD",
"(  c #4B06BA",
")  c #7E1AA1",
"_  c #7E19AB",
"`  c #7916A6",
"'  c #670DB8",
"]  c #6D12BD",
"[  c #7012B5",
"{  c #7314BC",
"}  c #7B18BA",
"|  c #7917B5",
" . c #4B06C4",
".. c #440AC1",
"X. c #4B0CC3",
"o. c #4D0DC9",
"O. c #4107C1",
"+. c #520CC5",
"@. c #540DCC",
"#. c #5B0ECB",
"$. c #5D0EC6",
"%. c #4F11C4",
"&. c #4E11C8",
"*. c #5410C6",
"=. c #5212CA",
"-. c #5B13CC",
";. c #5B10C7",
":. c #550ED3",
">. c #5B0ED3",
",. c #5C0ED9",
"<. c #5C11D5",
"1. c #5D12DC",
"2. c #5711D0",
"3. c #620EC3",
"4. c #690EC4",
"5. c #650FCB",
"6. c #6610C4",
"7. c #6911C4",
"8. c #6213CA",
"9. c #6D14CC",
"0. c #6C1AC7",
"q. c #7415C2",
"w. c #721AC6",
"e. c #7C1BC3",
"r. c #731AC9",
"t. c #7B1CCD",
"y. c #7117CD",
"u. c #600DD3",
"i. c #6314D4",
"p. c #6A15D3",
"a. c #6D19D3",
"s. c #6313DA",
"d. c #6913DD",
"f. c #6C1ADD",
"g. c #741BD2",
"h. c #7B1DD3",
"j. c #721CDB",
"k. c #7B21CB",
"l. c #7C20C3",
"z. c #7B23DC",
"x. c #7720DA",
"c. c #6615E1",
"v. c #6C1AE2",
"b. c #6917E4",
"n. c #701FE1",
"m. c #7621E4",
"M. c #7C24E2",
"N. c #7E28E4",
"B. c #810F81",
"V. c #831483",
"C. c #851883",
"Z. c #83148A",
"A. c #8A138C",
"S. c #85198D",
"D. c #8B1C8C",
"F. c #851692",
"G. c #8A1694",
"H. c #841A94",
"J. c #891B96",
"K. c #86169C",
"L. c #8A1599",
"P. c #831B9D",
"I. c #891C9B",
"U. c #861CA3",
"Y. c #8B1DA5",
"T. c #831BAC",
"R. c #8C1CAA",
"E. c #8517A6",
"W. c #901FAA",
"Q. c #831EB3",
"!. c #8C1EB3",
"~. c #821EBE",
"^. c #8C1EBB",
"/. c #8B21AC",
"(. c #8B21A9",
"). c #8D22B4",
"_. c #8322BD",
"`. c #8B23BB",
"'. c #8622B0",
"]. c #9125B4",
"[. c #9125BD",
"{. c #841DC2",
"}. c #851ECA",
"|. c #8425C6",
" X c #8E25C2",
".X c #8525CD",
"XX c #8D27CC",
"oX c #9024C3",
"OX c #9328CB",
"+X c #8425D2",
"@X c #8D24D3",
"#X c #8D2BD5",
"$X c #8524DC",
"%X c #8D2FDC",
"&X c #872DDB",
"*X c #912FDB",
"=X c #832BE2",
"-X c #892BE5",
";X c #942EE2",
":X c #8D31E3",
">X c #9434E8",
/* pixels */
"                                                                                ",
"                                                                                ",
"                                B V S S D S B                                   ",
"                            7 M M N C Z D G L H D                               ",
"                        N D ! o.X.%.o.o./ ^ G G P O.F M                         ",
"                      H Y ~ ~ ~ X.@.:.>.<.1.1.:.^ J ~ Y N                       ",
"                    P G L X.>.s.d.f.a.p.p.5.p.j.c.1...~ / A                     ",
"                H F G o.1.v.m.N.M.$X$X-X-X:X$Xy.9.m.d.:...+.Z N                 ",
"              D Z ! <.b.g.4.q.e._.R.U.U.Q.{.+X;X*Xq.h.n.u.+.+.A Z               ",
"            Z Z =.<.d.5.h.*XXX X^.!.Y.L.Z.T F.`.@X*Xe.r.M.s.+.+.C               ",
"          Z A @.<.i.g.>X@X~.E.K.C.C.C.D.D.S.k z J.^.OX_.e.N.$.$.! Z   7         ",
"        B B X.@.u.j.>X}.U.S.x k s p t q w p m k s T R.oX| +X9.6.-.F L B         ",
"      N N I  .>.j.:XQ.U.H.V.s t 9 4 3 4 4 4 4 y p t z R.).} :X7.8.X.G F         ",
"        F X. .d.-X} /.I.z r 9 3 > : * & * : , < q r t Z.W.T..Xt.0.<.G U 7       ",
"        ^ U ,.=X{ ).J.h y 9 < - $ $ # # # @ % - < 9 4 p L.I.~.#X] p.Y O.C 6     ",
"      D ~ X.v.h.`.I.z g q 3 - % # + + + + + O # * < 4 9 n G.T.*X[ a.X.P A 7     ",
"      L L >.h.w./.T m i 3 1 # # @ + O o O O + + # - 3 < h A.H. X[ k.:.~ G 7     ",
"    Z P P s.g.|.E C.g q 3 & # # O o X . X X O + # % < , y V.R  X} k.:.! K 7     ",
"    D H / a.9.`.W C.i q - & # + o . . . . . X O + # : > e m x `._ e.,.~ H 7     ",
"    J F o.a.p.'.K.z p 9 - % # + X . . . . . X O + @ - - 0 f l `._ k.,.+.G M     ",
"    J Z *.f.r.'.K.d g 4 ; $ # + X . . . . . . o O # & : r p V.R.Q k.>.+.G N     ",
"    G S *.i.w.Q.J.k f 4 ; $ $ + X . . . . . . o + # & : r y S.U.Q +X>.*.Z B     ",
"    G Z *.i.w.{.F.l k 4 1 % $ # O . . . . . X o + # - 3 9 d G.T ` g.9.-.C Z     ",
"      C @.>.0.}.H.V.k 8 < = % $ + o X . . X o O + % > 3 w n T T |.9.p.=.B S     ",
"        o.@.8.$XQ S.V.w 9 : & & # + O O o O + @ % : , 4 f x z ) +X7.i.J D Z     ",
"        ^ o.;.:X_ K.S.y i 2 ; & & $ @ + + @ # % - - 2 p k j Q  X] a.2.D G M     ",
"        K o.+.=X| P.K.d c e 2 1 * = * % % & * - , 3 u p s R `.|.q.f.! F S       ",
"        S +.X.f.t._ R.S.b v 9 5 1 - ; ; = - : 1 4 9 t s F.).`.' m.<.G P M       ",
"          ^ P 1.N.[ /.R.Z.A.f u a 5 < < 3 3 5 9 r d V.S.U.Q.q.=Xs.P P Z         ",
"          D Y ..f.g.| ).K.J.G.f s c p e 9 q u p z z T Q _ r.-Xi.^ Y H           ",
"              L o.v.] e. XE./.Y.l m n D.A.b l S.J.Y.^.}.$X&X#.( / ^             ",
"              Y H 2.f.' .XXXT.).).Y.T V.J.Y.].[.[.}.|.@Xr.$.( X.^               ",
"                F H :.i.6.r.%X{.{.XXoX!.Q ) U._ '.l.[ ' @.+.o.                  ",
"                H F H &.;.6.7.x.&Xh.h.h.h.{.q.] 6.9.i.<.:.%.Z                   ",
"                  F F S ^ *.+.;.i.p.x.z.z.j.v.n.v.c.<...D                       ",
"                    S V N D / X.o.o.:.@.@.@.+.X.! K Z B B                       ",
"                      B B   N B I *.o.^ P L G F D D F                           ",
"                          7     7 7 B Z G P L                                   ",
"                                                                                ",
"                                                                                "
};
