/* XPM */
static char *_ce683391eb44d4be505aab1d614aaa0ymQeYnRjNxGsELrW[] = {
/* columns rows colors chars-per-pixel */
"40 40 179 2 ",
"   c #2A1711",
".  c #2B1F17",
"X  c #261D1A",
"o  c #2B1E1A",
"O  c #321E13",
"+  c #331E19",
"@  c #26211E",
"#  c #2B221E",
"$  c #352116",
"%  c #34241D",
"&  c #3C241C",
"*  c #35291D",
"=  c #3C2A1D",
"-  c #262321",
";  c #2B2623",
":  c #2D2926",
">  c #2A2728",
",  c #2E2B2A",
"<  c #322622",
"1  c #3B2622",
"2  c #332925",
"3  c #3B2A24",
"4  c #312D2B",
"5  c #3A2D29",
"6  c #3C3127",
"7  c #32302E",
"8  c #3C322C",
"9  c #322F30",
"0  c #343232",
"q  c #393432",
"w  c #3D3C3C",
"e  c #421C16",
"r  c #621F1B",
"t  c #482317",
"y  c #43241D",
"u  c #4B261C",
"i  c #442A1D",
"p  c #4B2B1D",
"a  c #532717",
"s  c #53261B",
"d  c #5C271C",
"f  c #532B1C",
"g  c #5D2C1E",
"h  c #5D2C1D",
"j  c #5B2C1D",
"k  c #41301D",
"l  c #44311F",
"z  c #4C321E",
"x  c #5E3514",
"c  c #5F3B13",
"v  c #54331D",
"b  c #5C341D",
"n  c #523818",
"m  c #553A1D",
"M  c #5B3819",
"N  c #5C3B1B",
"B  c #632D16",
"V  c #6C2917",
"C  c #652318",
"Z  c #6A271E",
"A  c #602A1B",
"S  c #622B1A",
"D  c #632D1A",
"F  c #632D1C",
"G  c #612E1E",
"H  c #622C1C",
"J  c #6B2B1C",
"K  c #712517",
"L  c #762B16",
"P  c #722A1B",
"I  c #7C2F1E",
"U  c #7D2918",
"Y  c #663014",
"T  c #6B3614",
"R  c #60301B",
"E  c #653518",
"W  c #65351E",
"Q  c #63331D",
"!  c #6D301B",
"~  c #69351B",
"^  c #68351F",
"/  c #6A331B",
"(  c #633C1B",
")  c #6A3A1D",
"_  c #7A3317",
"`  c #7D3016",
"'  c #763B17",
"]  c #763C16",
"[  c #7A3C16",
"{  c #73331C",
"}  c #7B361A",
"|  c #743A18",
" . c #723B1B",
".. c #79391C",
"X. c #422520",
"o. c #442720",
"O. c #432621",
"+. c #452820",
"@. c #462822",
"#. c #452A23",
"$. c #412D23",
"%. c #422924",
"&. c #402925",
"*. c #432C24",
"=. c #432B22",
"-. c #482B22",
";. c #4A2C21",
":. c #482D26",
">. c #4D2F25",
",. c #4B2C23",
"<. c #442D28",
"1. c #512620",
"2. c #5A2721",
"3. c #542E21",
"4. c #532C21",
"5. c #5E2F22",
"6. c #5C2C21",
"7. c #453022",
"8. c #4E3521",
"9. c #4B3223",
"0. c #4C3822",
"q. c #483820",
"w. c #40302B",
"e. c #403729",
"r. c #493A2C",
"t. c #533422",
"y. c #5B3023",
"u. c #5B3321",
"i. c #5A3322",
"p. c #563A22",
"a. c #413734",
"s. c #642A22",
"d. c #6B2C21",
"f. c #752A21",
"g. c #643421",
"h. c #6C3420",
"j. c #613A21",
"k. c #6B3B22",
"l. c #693D21",
"z. c #713321",
"x. c #7A3D20",
"c. c #55401B",
"v. c #5C431B",
"b. c #5C4C1C",
"n. c #60421B",
"m. c #65401B",
"M. c #64421D",
"N. c #6C441C",
"B. c #73431B",
"V. c #7D4319",
"C. c #764E18",
"Z. c #704B1D",
"A. c #7C4B1D",
"S. c #6E591C",
"D. c #73541B",
"F. c #785219",
"G. c #785B1B",
"H. c #574423",
"J. c #5E4821",
"K. c #5E4820",
"L. c #5B422B",
"P. c #624121",
"I. c #624A20",
"U. c #744F29",
"Y. c #675020",
"T. c #6E5124",
"R. c #705923",
"E. c #802A18",
"W. c #843118",
"Q. c #8E3818",
"!. c #953B15",
"~. c #844317",
"^. c #8A4216",
"/. c #834419",
"(. c #834C19",
"). c #8F4818",
"_. c #9D4E15",
"`. c #985B17",
"'. c #985A17",
/* pixels */
"y D f 2 0 9 > > 3 #.o.< : @ d % X > 4 ; ; ; < ; S !.# 2 : % C.v., 7 > , 7 > > - ",
": a 5 9 0 9 > 0 : 2 y D f M ] h f u 3 < ; $.= + I S 4 0 4 i = k 0.7 - , > 3 7 > ",
"4 : 2 4 > > , , > , *.j = M E u j j F h 5.g.o.y u J 4 , , 3 , > @ H.6 , > > # - ",
"q > y p - > , 7 > , 6.= @ p i # 4 4 - - ; ; : : o ^ ; 7 , > , , : 4 K.; 7 0 7 , ",
", 1 d 1 p 2 7 > ; 3 f : 2 u = ; > 4 4 , , 4 4 4 % ..> 7 , , , , , ; n k # - 9 0 ",
"y s 5 : *.u 5 8.p p 2 , : u.2 : , 2 4 4 : , ; ; o.j : 7 ; : 7 4 2 # H.: , 9 9 > ",
"@.: > , , < } ] # < 2 > # l.; : : #.1 3 : , : # b u : : > > k ;.; * j.4 , , : < ",
"> , 0 4 - - D o ; : 4 > i ^ ; 4 , 3 4 < < , : o `.m.* ; 4 > 2 5 ; u f 2 1 5 : >.",
": 4 > > 0 4 Z u ; : 4 2 v 3.; : 4 : 4 4 > > # f M # l m 7 , , 7 > Z 1 4 : < 6./ ",
"1 1 , , : : y P ; < 3 # N l : 4 > > , 4 ; ; = A.# ; : 7.7.2 2 2 o S , 4 : : 4 o.",
"4 5 #.2 5 3 % j F ,.v m B.n ; ; ; 2 <.3 2 # B.N : : 7 , , : $.#.b D > , ; , , ; ",
"4 : 3 :.*.3 3 u F ; : > * c.b.@ 6 t.2.1.y s U - > : 7 , : : : > % E ; : , 4 4 , ",
", ; : % t.4 : o P 3 < 4 # v v.R.n.2 , 7 0 4 r ; 7 4 , ; 4 : , , = M.: 7 , , < 2 ",
"5 4 o.t.< - : ; 2.3 4 1.j v @ * l 6 , 0 0 0 u 1 , , , , , 4 4 , # ( ; 5 7.p.t.>.",
"p E 3.2 : : 4 : 2.,.o.& y ,.u 2 3 < : > 0 , 1 1.; 3 2 4 > > 4 9 % ( f f i 2 , @ ",
"; ) 3 : 4 2 > % :.5 ; 1 > 4 :.j n n.z @ , , o.A u % 2 #.> - 4 , : m.# X - : ; - ",
"- L.o # ; : 7.b 7 , 7 0 , , > p : < Q : 4 1 5 > t ) % 3 : > > - ; ] T X ; 4 5 , ",
"# U.v i 3 * H.2 , > , , , : , 5 < % S & %.1 9 9 4 v M % i f v f g S /.v : 4 2 2 ",
"#.v # i z M G.2 , > , , , 9 0 7 3 : f - , 4 0 0 0 0 = } T p 3 6 ; ; = ` < : 2 q ",
"..3 : 2 : X v.k 0 , 7 7 9 , 9 , u 1 p.4 q 4 0 w q , m /.X - ; 4 , ; % S < < 1 a.",
"4.: : 4 ; # b z - : @ @ : 4 - = B A.N.% y = 1 + e u l > < : : 4 4 , < y J o < 4 ",
"y 4 : 7 ; - V h @ * = l 3 5 o.y X i M y h A @.u K % 4 4 , , > 0 , , 4 & f.% < % ",
"D * # ; @ & U L Y `.c c b s F y.% > 0 ;.a : ; o R R : ; > 4 , 0 - - ,.s @.2.6.& ",
").(. .^ u u t #   ^.% @ , , , 2 b 5 7 v 3 4 4 4 # T * @ ; 4 : 5 % y.f.< ; < g.g ",
"( 3 # % & u Z o # L u , 7 > 9 , 8 t.i ,., > 9 9 o b u.> : ; # m.j p : 4 , 4 4 7 ",
"( 3 5 4 : % { ; < a | 3 7 , , 0 ; % g 1 > , 0 0 : p i ; ; % v.F.% < : : , 4 ; 7 ",
"g.: , 4 ; = B.# v f B ^.3 : , , u 2.1 : , , , > 3 j E l._ W.T i : : : : , > > , ",
"y.5 : , : @ v v u.1 o % E X.; % 1.: 2 1 , 9 , - B & % y o V + # ; 5 : : > : 4 , ",
";.: : : * 9.A.$ - : 2 , : F j o., , > > 4 2 , : (.v < ; < f P # 2 4 4 4 : > , , ",
"o.: 3 < 2 : z D ; , 2 5 4 *...% , 2 , - 4 4 - &  .#.,.*.5 2 J y ; < , : 5 5 5 5 ",
"3.0.S.; 4 , ; F ; 2 5 :.- : 4.J 4 4 2 4 4 5 # z f ; 1 <.< < 1 h.= : 4 , , 7 , q ",
"# : v.- 4 : 4 A > 2 5 ,.; < & K + % u p v j.a D i < :.:.< 2 2 4.{ < 4 , , , 4 q ",
"4 ; J.@ ; ; < F > 4 # p a i V K { g.1 - [ O u h.# ; < v 4 4 ; : d f > : > 2 > ; ",
"8.n I.# , , 5 h @ : i ~.T V.a % ; - 2 < [ $ % 3 : ; 3 k.$.4 < 4 o J p *.# # , 4 ",
"i : 3 z , 4 3 u i m p l @ M i % < ; 5 < ~ B 3 4 : 4 :.;.1 3 6 # % ` f M i ( = 3 ",
", 0 , i i 4 3 / b 3 2 : # 5 s.: - > 4 $.) } $.: < 3 1 4 4 , 2 # s d 4 4 : 8.i m ",
", @ > 9 : k i ; ; , : 4 - ; s.# : : 7 8 X % W : 4 4 > - 4 , @ # _.p , , > , * 2 ",
"0 7 7 9 , 6 N < : , , , , 5 d.: : , 4 4 # o h.1 4 : 7 - 4 : % | v 4 , 7 7 0 7 l ",
", 0 7 9 5 p 3 2 , 4 > : 2 < J ; < 4 7 ; 3 < 4.{ ; 1 ;.p # # T.m > , , @ - , 7 6 ",
"$.0 7 : u 3 , 5 4 - > ; ; : Z < 2 : 4 , 5 5 2 6.y C Q.V.b.D.Z.- > , > @ > , , , "
};
