/* XPM */
static char *_1b88eacab0245b0f77c14d298fe4413o9TN9H4eMChnEYDN[] = {
/* columns rows colors chars-per-pixel */
"40 40 200 2 ",
"   c None",
".  c #697F13",
"X  c #6B7F12",
"o  c #697F14",
"O  c #697F15",
"+  c #920005",
"@  c #930005",
"#  c #900204",
"$  c #930006",
"%  c #910206",
"&  c #900306",
"*  c #920308",
"=  c #920408",
"-  c #930409",
";  c #960508",
":  c #970508",
">  c #9B0408",
",  c #9A0708",
"<  c #9C0509",
"1  c #9F060A",
"2  c #8A1709",
"3  c #920E12",
"4  c #901112",
"5  c #931112",
"6  c #941111",
"7  c #961012",
"8  c #911413",
"9  c #961216",
"0  c #981215",
"q  c #981317",
"w  c #9E1616",
"e  c #9E1815",
"r  c #9D1618",
"t  c #9C1719",
"y  c #9B191C",
"u  c #9F181C",
"i  c #A7090B",
"p  c #AD0A0F",
"a  c #BB090E",
"s  c #BC0A0F",
"d  c #AC1416",
"f  c #A01A17",
"g  c #B91717",
"h  c #84290B",
"j  c #86280B",
"k  c #832C0A",
"l  c #822C0C",
"z  c #832C0C",
"x  c #80370C",
"c  c #983611",
"v  c #993F15",
"b  c #B33C15",
"n  c #BC3F19",
"m  c #9E1F23",
"M  c #9B2023",
"N  c #9E2123",
"B  c #A1282A",
"V  c #A43733",
"C  c #C20B0F",
"Z  c #C50B11",
"A  c #C30E12",
"S  c #C50C10",
"D  c #CE0D12",
"F  c #CF0D12",
"G  c #CE0D13",
"H  c #CE0F13",
"J  c #CE0F14",
"K  c #CE1016",
"L  c #CD161A",
"P  c #CC1D21",
"I  c #C62723",
"U  c #C92926",
"Y  c #C22629",
"T  c #CE262B",
"R  c #C8272C",
"E  c #CA2A2D",
"W  c #C82A2F",
"Q  c #D0292F",
"!  c #CD312C",
"~  c #C4382F",
"^  c #D02B30",
"/  c #D2393A",
"(  c #D3383B",
")  c #D03C38",
"_  c #D33D3E",
"`  c #D43E3F",
"'  c #A74E16",
"]  c #B24117",
"[  c #BB4518",
"{  c #9D5824",
"}  c #BF5B32",
"|  c #BD5D31",
" . c #D2483B",
".. c #D24C4C",
"X. c #DB5546",
"o. c #D85851",
"O. c #DD6350",
"+. c #DD6653",
"@. c #DE6854",
"#. c #DE6D57",
"$. c #E1735C",
"%. c #E2765F",
"&. c #DC6D61",
"*. c #E07564",
"=. c #698013",
"-. c #6D8115",
";. c #87A01F",
":. c #869E20",
">. c #8EA722",
",. c #94AD25",
"<. c #9BAF26",
"1. c #95B024",
"2. c #92A931",
"3. c #99AD3B",
"4. c #A0B639",
"5. c #A0B83D",
"6. c #8C9345",
"7. c #8F984A",
"8. c #909649",
"9. c #91964A",
"0. c #92984E",
"q. c #92994E",
"w. c #92994F",
"e. c #A7BC47",
"r. c #A1B44F",
"t. c #A3B356",
"y. c #AEBB5C",
"u. c #BD967D",
"i. c #B1BD61",
"p. c #ADAA74",
"a. c #C58550",
"s. c #CE8454",
"d. c #D18055",
"f. c #C3886A",
"g. c #D89C6F",
"h. c #C38C7F",
"j. c #D79D70",
"k. c #E58268",
"l. c #E48368",
"z. c #E58368",
"x. c #E4866A",
"c. c #E38277",
"v. c #B1C35E",
"b. c #B4C160",
"n. c #B4C161",
"m. c #B6C365",
"M. c #B6C266",
"N. c #B7C670",
"B. c #BAC975",
"V. c #BCC974",
"C. c #BFCA7A",
"Z. c #DF8C87",
"A. c #C7BB9C",
"S. c #E7A089",
"D. c #CBBDA0",
"F. c #D3B4A3",
"G. c #D4B7A7",
"H. c #E5ABA5",
"J. c #C9D390",
"K. c #CBD594",
"L. c #D2DBA3",
"P. c #D4DDA8",
"I. c #DAC7B3",
"U. c #D9C6B5",
"Y. c #D9C7B5",
"T. c #DAC6B4",
"R. c #DBC7B4",
"E. c #D9C8B5",
"W. c #E9CAC1",
"Q. c #E8D5C8",
"!. c #ECD9CC",
"~. c #E7DDD3",
"^. c #ECDAD0",
"/. c #EADFD1",
"(. c #EADFD2",
"). c #F4DED6",
"_. c #EBE0D5",
"`. c #EDE1D7",
"'. c #ECE2D6",
"]. c #EDE2D7",
"[. c #EAE1D9",
"{. c #ECE2D8",
"}. c #EDE2D8",
"|. c #EAE4DD",
" X c #F3E2DB",
".X c #F0E8DE",
"XX c #EEE7E1",
"oX c #EEE8E1",
"OX c #F3E5E3",
"+X c #F0EAE0",
"@X c #F0EBE2",
"#X c #F4EFEC",
"$X c #F6F1EE",
"%X c #F7F2EF",
"&X c #F8F1ED",
"*X c #F3F3F3",
"=X c gray97",
"-X c #F9F4F1",
";X c #F9F8F8",
":X c #FBFBFB",
/* pixels */
"                                                                                ",
"                                                                                ",
"                                                                                ",
"                                                                                ",
"                                                                                ",
"                                    N.5.,.-.                                    ",
"                                  <.B.4.1.=..                                   ",
"                                    t.2.;.. X                                   ",
"                                    3.r.:.O                                     ",
"                                    e.v.>.O                                     ",
"                                    { a.' x                                     ",
"                                    < X.s %                                     ",
"                                    d &.Y q 9                                   ",
"                                  % ~ o.W B m                                   ",
"                                  i #.) P f 9 8                                 ",
"                                i  .k.L K p % -                                 ",
"                                g $.$.G F s % @ %                               ",
"                              - I l.@.G F C @ @ %                               ",
"                              v | j.s.[ [ ] z z k                               ",
"                              M.C.P.K.m.m.i.w.w.w.                              ",
"                              ].oX:X-X{.{._.p.A.I.                              ",
"                              ].oX=X$X{.W.f.6.A.T.                              ",
"                              {.oX=X$X_._ A 2 u.T.                              ",
"                              ~.|.*X$XH.K C - h.T.                              ",
"                              _.XX:X X/ G S V G.T.                              ",
"                              ].+X X*.F G ..F.U.T.                              ",
"                              ].!.S.*...Z.Q.E.T.T.                              ",
"                              ].OX-X X^._._.T.E.R.                              ",
"                              n.V.L.J.v.n.y.9.9.8.                              ",
"                              c } g.$.n n b j j h                               ",
"                              , ! x.O.) ^ R y 0 3                               ",
"                              , I x.+.E T W N N 7                               ",
"                                , e f t t w 4 7                                 ",
"                                                                                ",
"                                                                                ",
"                                                                                ",
"                                                                                ",
"                                                                                ",
"                                                                                ",
"                                                                                "
};
