/* XPM */
static char *result[] = {
/* columns rows colors chars-per-pixel */
"40 40 87 1 ",
"  c black",
". c #010101",
"X c #020202",
"o c gray1",
"O c #040404",
"+ c gray2",
"@ c #060606",
"# c gray3",
"$ c #090909",
"% c gray4",
"& c #0B0B0B",
"* c #0C0C0C",
"= c gray5",
"- c #0E0E0E",
"; c #101010",
": c #181818",
"> c gray10",
", c #1B1B1B",
"< c gray11",
"1 c #1E1E1E",
"2 c #202020",
"3 c #272727",
"4 c #282828",
"5 c gray16",
"6 c gray18",
"7 c #313131",
"8 c #323232",
"9 c #353535",
"0 c gray21",
"q c #3A3A3A",
"w c #3F3F3F",
"e c #414141",
"r c gray28",
"t c #484848",
"y c gray31",
"u c #505050",
"i c #585858",
"p c #5A5A5A",
"a c #5B5B5B",
"s c #5D5D5D",
"d c gray37",
"f c #656565",
"g c DimGray",
"h c #6A6A6A",
"j c #727272",
"k c gray45",
"l c gray46",
"z c gray49",
"x c gray50",
"c c gray52",
"v c #8B8B8B",
"b c gray58",
"n c gray59",
"m c #989898",
"M c gray60",
"N c #9B9B9B",
"B c gray62",
"V c #A4A4A4",
"C c #A7A7A7",
"Z c #A9A9A9",
"A c gray67",
"S c gray69",
"D c #B9B9B9",
"F c gray73",
"G c gray74",
"H c gray75",
"J c #C5C5C5",
"K c gray80",
"L c #CECECE",
"P c gray82",
"I c LightGray",
"U c #D5D5D5",
"Y c #DDDDDD",
"T c gray89",
"R c #E4E4E4",
"E c gray90",
"W c #E9E9E9",
"Q c #EAEAEA",
"! c #EEEEEE",
"~ c #EFEFEF",
"^ c gray96",
"/ c #F6F6F6",
"( c #F9F9F9",
") c gray98",
"_ c #FEFEFE",
"` c white",
"' c None",
/* pixels */
"''''''''''''''''''''''''''''''''''''''''",
"''''''''''''''''''''''''''''''''''''''''",
"''''''''''''''''''''''''''''''''''''''''",
"''''''''''''''''''''''''''''''''''''''''",
"''''''''''''''''''''''''''''''''''''''''",
"''''''''''''''''''''''''''''`!''''''''''",
"''''''''''''''''''''''''SVG~Jh''''''''''",
"'''''''''''''''''''''=o    :4>''''''''''",
"'''''''''''''''''''$        ,I''''''''''",
"'''''''''''''''''t          2'''''''''''",
"''''''''''''''''e          .''''''''''''",
"'''''''''''''''i           9''''''''''''",
"'''''''''''''''.         X''''''''''''''",
"''''''''''''''1          '''''''''''''''",
"''''''''''''''         %''''''''''''''''",
"'''''''''''''4        ='''''''''''''''''",
"'''''''''''''>       X''''''''''''''''''",
"'''''''''''''-       t''''''''''''''''''",
"'''''''''''''&    7#3'''''''''''''''''''",
"'''''''''''''*    Drc'''''''''''''''''''",
"''''''''''''';    4&m'''''''''''''''''''",
"'''''''''''''>      k'''''''''''''''''''",
"'''''''''''''8      +'''''''''''''''''''",
"''''''''''''''       %''''''''''''''''''",
"''''''''''''''+       Ox^'''''''''''''''",
"''''''''''''''w         <H''''''''''''''",
"'''''''''''''''.        . u'''''''''''''",
"'''''''''''''''0         . 5W)''''''''''",
"'''''''''''''''L;           ayd'''''''''",
"''''''''''''''''M@            d'''''''''",
"''''''''''''''''''&         86g'''''''''",
"''''''''''''''''''A        $P(''''''''''",
"'''''''''''''''''`F g-.   .'''''''''''''",
"'''''''''''''''''`Z Efjvyz''''''''''''''",
"''''''''''''''''''N RKpI``''''''''''''''",
"''''''''''''''''''n Y`BfWW`'''''''''''''",
"''''''''''''''''''n U`/lkuQ'''''''''''''",
"''''''''''''''''''' sI`Tdb''''''''''''''",
"'''''''''''''''''''# q_`''''''''''''''''",
"'''''''''''''''''''LCQ''''''''''''''''''"
};
