/* XPM */
static char *result[] = {
/* columns rows colors chars-per-pixel */
"40 40 88 1 ",
"  c black",
". c #010101",
"X c #020202",
"o c gray1",
"O c #040404",
"+ c gray2",
"@ c #070707",
"# c gray3",
"$ c #090909",
"% c gray4",
"& c #0B0B0B",
"* c #0E0E0E",
"= c gray7",
"- c #131313",
"; c gray8",
": c #161616",
"> c #1B1B1B",
", c gray11",
"< c #1D1D1D",
"1 c #1E1E1E",
"2 c gray13",
"3 c #232323",
"4 c #252525",
"5 c gray15",
"6 c #272727",
"7 c #2D2D2D",
"8 c gray19",
"9 c #313131",
"0 c gray20",
"q c #353535",
"w c #3F3F3F",
"e c #434343",
"r c #444444",
"t c #464646",
"y c #4B4B4B",
"u c #4C4C4C",
"i c gray30",
"p c #4E4E4E",
"a c #515151",
"s c #535353",
"d c gray33",
"f c #5A5A5A",
"g c gray36",
"h c #676767",
"j c #6C6C6C",
"k c #6F6F6F",
"l c gray44",
"z c #717171",
"x c gray46",
"c c #7C7C7C",
"v c gray49",
"b c #7E7E7E",
"n c #838383",
"m c #848484",
"M c #909090",
"N c #929292",
"B c #989898",
"V c gray65",
"C c #ACACAC",
"Z c gray68",
"A c #AFAFAF",
"S c gray70",
"D c #B6B6B6",
"F c gray73",
"G c #BCBCBC",
"H c gray75",
"J c #C5C5C5",
"K c #C6C6C6",
"L c #C8C8C8",
"P c #CACACA",
"I c #CECECE",
"U c #D5D5D5",
"Y c #D8D8D8",
"T c gray85",
"R c gainsboro",
"E c gray87",
"W c gray88",
"Q c #E6E6E6",
"! c #EAEAEA",
"~ c gray95",
"^ c #F3F3F3",
"/ c gray96",
"( c #F6F6F6",
") c #F8F8F8",
"_ c gray99",
"` c #FEFEFE",
"' c white",
"] c None",
/* pixels */
"]]]]]]]]]]]]]]]]]]]]]]]]]]]]]]]]]]]]]]]]",
"]]]]]]]]]]]]]]]]]]]]]]]]]]]]]]]]]]]]]]]]",
"]]]]]]]]]]]]]]]]]]]]]]]]]]]]]]]]]]]]]]]]",
"]]]]]]]]]]]]]]]]]]]]]]]]]]]]]]]]]]]]]]]]",
"]]]]]]]]]]]]]]]]]]]]]]]]]]]]]]]]]]]]]]]]",
"]]]]]]]]]]]]]]]]]]]]]]]]]]]]]]]]]]]]]]]]",
"]]]]]]]]]]vc/JVCKW)]]]]]]]]]]]]]]]]]]]]]",
"]]]]]]]]]'9,7.   @>f]]]]]]]]]]]]]]]]]]]]",
"]]]]]]]]]'Lr        Od]]]]]]]]]]]]]]]]]]",
"]]]]]]]]]]'g          7]]]]]]]]]]]]]]]]]",
"]]]]]]]]]]]P+          2]]]]]]]]]]]]]]]]",
"]]]]]]]]]]]]j           9]]]]]]]]]]]]]]]",
"]]]]]]]]]]]]]h+          M]]]]]]]]]]]]]]",
"]]]]]]]]]]]]]'V$         *^]]]]]]]]]]]]]",
"]]]]]]]]]]]]]]'G5         n]]]]]]]]]]]]]",
"]]]]]]]]]]]]]]]'T>        3_]]]]]]]]]]]]",
"]]]]]]]]]]]]]]]]]Z+       %Q]]]]]]]]]]]]",
"]]]]]]]]]]]]]]]]]`mo      .U]]]]]]]]]]]]",
"]]]]]]]]]]]]]]]]]''e q     ]]]]]]]]]]]]]",
"]]]]]]]]]]]]]]]]]]'A,R@    ]]]]]]]]]]]]]",
"]]]]]]]]]]]]]]]]]]]I.0    X]]]]]]]]]]]]]",
"]]]]]]]]]]]]]]]]]]]So     %]]]]]]]]]]]]]",
"]]]]]]]]]]]]]]]]]]D;      1]]]]]]]]]]]]]",
"]]]]]]]]]]]]]]]]]]=       s]]]]]]]]]]]]]",
"]]]]]]]]]]]]]]]_B%        F']]]]]]]]]]]]",
"]]]]]]]]]]''''U4         5']]]]]]]]]]]]]",
"]]]]]]]]]'''(xX.         B]]]]]]]]]]]]]]",
"]]]]]]]]]Y~(r. .        ,]]]]]]]]]]]]]]]",
"]]]]]]]]]M8b.           ]]]]]]]]]]]]]]]]",
"]]]]]]]]]B             ]]]]]]]]]]]]]]]]]",
"]]]]]]]]]]<r         O]]]]]]]]]]]]]]]]]]",
"]]]]]]]]]]]!:        z]]]]]]]]]]]]]]]]]]",
"]]]]]]]]]]]]]-   .;7$c]]]]]]]]]]]]]]]]]]",
"]]]]]]]]]]]]]QNykHRu&l]]]]]]]]]]]]]]]]]]",
"]]]]]]]]]]]]]]]]]]Eu%]]]]]]]]]]]]]]]]]]]",
"]]]]]]]]]]]]]]]]]]Ki#]]]]]]]]]]]]]]]]]]]",
"]]]]]]]]]]]]]]]]]Vlp+]]]]]]]]]]]]]]]]]]]",
"]]]]]]]]]]]]]]]]]at6.]]]]]]]]]]]]]]]]]]]",
"]]]]]]]]]]]]]]]]]Lw  ]]]]]]]]]]]]]]]]]]]",
"]]]]]]]]]]]]]]]]]]]A]]]]]]]]]]]]]]]]]]]]"
};
