/* XPM */
static char *result[] = {
/* columns rows colors chars-per-pixel */
"40 40 88 1 ",
"  c black",
". c #010101",
"X c #020202",
"o c gray1",
"O c #040404",
"+ c gray2",
"@ c #060606",
"# c #070707",
"$ c gray3",
"% c #090909",
"& c #0B0B0B",
"* c #0C0C0C",
"= c gray5",
"- c #0E0E0E",
"; c #111111",
": c #131313",
"> c #151515",
", c #161616",
"< c gray10",
"1 c #1B1B1B",
"2 c gray12",
"3 c #202020",
"4 c #252525",
"5 c gray16",
"6 c #2A2A2A",
"7 c gray17",
"8 c #2C2C2C",
"9 c gray18",
"0 c #313131",
"q c #323232",
"w c gray21",
"e c #393939",
"r c #3C3C3C",
"t c gray24",
"y c gray25",
"u c gray26",
"i c #4E4E4E",
"p c gray33",
"a c gray34",
"s c #585858",
"d c gray35",
"f c #5A5A5A",
"g c #5B5B5B",
"h c gray36",
"j c gray37",
"k c #646464",
"l c #676767",
"z c DimGray",
"x c #6A6A6A",
"c c #6F6F6F",
"v c gray45",
"b c #777777",
"n c #797979",
"m c gray48",
"M c gray50",
"N c gray51",
"B c #848484",
"V c #888888",
"C c #8D8D8D",
"Z c #8E8E8E",
"A c gray56",
"S c gray58",
"D c #959595",
"F c #989898",
"G c #9B9B9B",
"H c gray61",
"J c #A0A0A0",
"K c #AFAFAF",
"L c gray69",
"P c #B2B2B2",
"I c #BBBBBB",
"U c #BCBCBC",
"Y c gray75",
"T c #C1C1C1",
"R c gray78",
"E c gray79",
"W c gray82",
"Q c #E1E1E1",
"! c gray91",
"~ c #EAEAEA",
"^ c #F3F3F3",
"/ c #F6F6F6",
"( c #F9F9F9",
") c #FBFBFB",
"_ c gray99",
"` c #FEFEFE",
"' c white",
"] c None",
/* pixels */
"]]]]]]]]]]]]]]]]]]]]]]]]]]]]]]]]]]]]]]]]",
"]]]]]]]]]]]]]]]]]]]]]]]]]]]]]]]]]]]]]]]]",
"]]]]]]]]]]]]]]]]]]]]]]]]]]]]]]]]]]]]]]]]",
"]]]]]]]]]]]]]]]]]]]]]]]~]]]]]]]]]]]]]]]]",
"]]]]]]]]]]]]]]]]]]]]]')qP]]]]]]]]]]]]]]]",
"]]]]]]]]]]]]]]]]]]]]zef2*E]]]]]]]]]]]]]]",
"]]]]]]]]]]]]]]]]]]]    6!']]]]]]]]]]]]]]",
"]]]]]]]]]]]]]]]]]b.    1G]]]]]]]]]]]]]]]",
"]]]]]]]]]]]]]]]]YO     ,B]]]]]]]]]]]]]]]",
"]]]]]]]]]]]]]]]]4      3]]]]]]]]]]]]]]]]",
"]]]]]]]]]]]]]]]m  .    6]]]]]]]]]]]]]]]]",
"]]]]]]]]]]]]]]]-      .]]]]]]]]]]]]]]]]]",
"]]]]]]]]]]]]]]J       ]]]]]]]]]]]]]]]]]]",
"]]]]]]]]]]]]]]t       ]]]]]]]]]]]]]]]]]]",
"]]]]]]]]]]]]]]o      ]]]]]]]]]]]]]]]]]]]",
"]]]]]]]]]]]]]T       ]]]]]]]]]]]]]]]]]]]",
"]]]]]]]]]]]]]A      $]]]]]]]]]]]]]]]]]]]",
"]]]]]]]]]]]]]h      8]]]]]]]]]]]]]]]]]]]",
"]]]]]]]]]]]]]e      i]]]]]]]]]]]]]]]]]]]",
"]]]]]]]]]]]]]u      k]]]]]]]]]]]]]]]]]]]",
"]]]]]]]]]]]]'w      g]]]]]]]]]]]]]]]]]]]",
"]]]]]]]]]]]]'w      0']]]]]]]]]]]]]]]]]]",
"]]]]]]]]]]]]'q      =_]]]]]]]]]]]]]]]]]]",
"]]]]]]]]]]]]'e       D]]]]]]]]]]]]]]]]]]",
"]]]]]]]]]]]]'s       ;]]]]]]]]]]]]]]]]]]",
"]]]]]]]]]]]]'U        9]]]]]]]]]]]]]]]]]",
"]]]]]]]]]]]]]'>        +n]]]]]]]]]]]]]]]",
"]]]]]]]]]]]]]'c         o]]]]]]]]]]]]]]]",
"]]]]]]]]]]]]]'QX         5]]]]]]]]]]]]]]",
"]]]]]]]]]]]]]]'d         1K]]]]]]]]]]]]]",
"]]]]]]]]]]]]]]]^X        :F`]]]]]]]]]]]]",
"]]]]]]]]]]]]]]]]4+       $Nf/]]]]]]]]]]]",
"]]]]]]]]]]]]]]]]jl7      <-6']]]]]]]]]]]",
"]]]]]]]]]]]]]]]]xav.sX  @RLp']]]]]]]]]]]",
"]]]]]]]]]]]]]]]]byM#]]]]]]]]]]]]]]]]]]]]",
"]]]]]]]]]]]]]]]]SrZ%']]]]]]]]]]]]]]]]]]]",
"]]]]]]]]]]]]]]]]V7C&W]]]]]]]]]]]]]]]]]]]",
"]]]]]]]]]]]]]]]].=Z.%]]]]]]]]]]]]]]]]]]]",
"]]]]]]]]]]]]]]]]lH(I]]]]]]]]]]]]]]]]]]]]",
"]]]]]]]]]]]]]]]]]]]]]]]]]]]]]]]]]]]]]]]]"
};
