/* XPM */
static char *_4af1ae1e9d54672937c94bafa375161hQDsCWbxlKHcm8io[] = {
/* columns rows colors chars-per-pixel */
"40 40 27 1 ",
"  c None",
". c black",
"X c #010101",
"o c #040404",
"O c #060606",
"+ c #070707",
"@ c gray3",
"# c #0C0C0C",
"$ c gray5",
"% c #101010",
"& c #131313",
"* c #161616",
"= c #181818",
"- c gray11",
"; c #1E1E1E",
": c #202020",
"> c #232323",
", c gray14",
"< c #272727",
"1 c gray17",
"2 c #2F2F2F",
"3 c #343434",
"4 c #3C3C3C",
"5 c gray26",
"6 c gray31",
"7 c #989898",
"8 c #B6B6B6",
/* pixels */
"                                        ",
"                                        ",
"                                        ",
"                                        ",
"                .                       ",
"               .#@..                    ",
"                1.....                  ",
"                :......                 ",
"                -......                 ",
"                ,.......                ",
"                3........               ",
"                 @.......               ",
"                 #........              ",
"                  .3......              ",
"                  .O%.....              ",
"                   .......              ",
"                   ........             ",
"                   ........             ",
"                   ..6#4-..             ",
"                    .8275..             ",
"                   ..O.....             ",
"                   ...-O...             ",
"                   ...:O...             ",
"                   ........             ",
"                  .........             ",
"                 .........              ",
"                ..........              ",
"               @..........              ",
"              1..........               ",
"              :..........               ",
"              =.........                ",
"            .*%.........                ",
"            ..@....... .                ",
"               ....... .                ",
"                    ....                ",
"                    . ..                ",
"                    ....                ",
"                   .....                ",
"                       .                ",
"                                        "
};
