/* XPM */
static char *result[] = {
/* columns rows colors chars-per-pixel */
"40 40 76 1 ",
"  c #010100",
". c #090603",
"X c #0D0806",
"o c #160D09",
"O c #1E120D",
"+ c #2F1301",
"@ c #22150E",
"# c #331A0C",
"$ c #261810",
"% c #2B1B12",
"& c #311E13",
"* c #3B200F",
"= c #352117",
"- c #382217",
"; c #3C2519",
": c #40210F",
"> c #48220B",
", c #512204",
"< c #562608",
"1 c #56290D",
"2 c #5E2B0A",
"3 c #432515",
"4 c #4C2A14",
"5 c #422A1C",
"6 c #4A2E1F",
"7 c #512B14",
"8 c #5C331B",
"9 c #602601",
"0 c #662901",
"q c #6D2E06",
"w c #642D0B",
"e c #6B320E",
"r c #773206",
"t c #7A3205",
"y c #74330A",
"u c #7A370C",
"i c #7B380D",
"p c #693515",
"a c #6E3919",
"s c #703612",
"d c #743813",
"f c #793A13",
"g c #4C2F20",
"h c #4E3121",
"j c #533423",
"k c #583725",
"l c #5B3927",
"z c #5C3B29",
"x c #643A21",
"c c #613D29",
"v c #6D442E",
"b c #6A4530",
"n c #714630",
"m c #764932",
"M c #7B4C34",
"N c #7E5139",
"B c #843502",
"V c #8A3702",
"C c #833A0B",
"Z c #913A01",
"A c #804F36",
"S c #825137",
"D c #84543B",
"F c #89563A",
"G c #8B583D",
"H c #915B3D",
"J c #8A5B40",
"K c #945F43",
"L c #995F40",
"P c #976144",
"I c #9A6243",
"U c #A16646",
"Y c #A56A4B",
"T c #AB6F4E",
"R c #AA7050",
"E c #B27553",
/* pixels */
"                                        ",
" %&O@;;109$-;-O@OO%;55%%;@=5;;@=;;$;$&% ",
" &7w2laeqV&glj5%;5555j5-k&hzk555hh&;5h; ",
" #qVyay17i#5jlh;6h6;%hh;h%hj6;z5gh&;hh- ",
" 0Zy3V>;jh%$;5%h-$-h%5jg$%5;-jjjhg%j;&$ ",
" 0faVZ+.......... .  ...  .. ..X..Xj;;; ",
" 4fy>+5j5ogjjlbk$=jjjjj;Ogjccjj$&;.jhk5 ",
" %79<.jml$nJFALm-6mMPSFm$vmGHmm-zb.jhh; ",
" %3<w.jml$vYPAHm-gmMEJLJ%SMDFmm&bN.5;h5 ",
" ;sq$.jMc@vYLmmm-gmATJKJ%RGmMMM-vD.%hz; ",
" @&&$ jPG$vYPmmm-gmMLSmc%RGmGRM-cn.h;55 ",
" -j5$.jIJ$bLJmMUggmMLSml%PDmGEM-zv.jhk; ",
" ;j5;.jPJ$vHFmAEggnmLSml%IFmFYM-cv.jg5% ",
" -;;j.jPJ$vHFmAEggmMLSml%TGmALM-lv.j7*@ ",
" @%;h.jPJ$bHFMAEhgmMLAml%RGmFLM-lv.hCw@ ",
" ;5%% jPJ$vHFALEhgmmLAml%KAmAHM-zv.%rs; ",
" ;5=g.jLK&cHFSUYggmMLSMl$HAMALM-lv $8i2 ",
" %ggg.jKS#cLFSLL;gmmLSmk%HAmSLM-cvX<yC0 ",
" O;kg.jFm$cUFSUUggmMISml$HAmSLM&cvXBZB, ",
" @gg% jFm$cHFSLEggmMLAml%GAmSLM3xcXtZw@ ",
" ;g;g.jFm$cKFSLA=gmMPSmz$nmmSLM&6j #rd; ",
" ;jjj.jFm%cLFSLA=gmmIAJS$nmmSLM;6j.$8x5 ",
" ;zj5.jAc%KKFJYM=gmmFmPJ$bmmSLM&6j.28h% ",
" =hg&.jmc%TFcJEM=gmmmmPJ$nDASLM;6j.y85% ",
" O%;j.jml%RJcKEM&gMMmmLJ$cYKDLM&hj.j;5; ",
" O%;j.jml%RJcKEA;gFTMmPJ%nTPSLM;6j.jl5@ ",
" =hjj.jml%TJASUM&gJESmLJ$vYKSLM&6j.=jj- ",
" ;j5;.bDl%TFAFYA&gJEMmHA$vYLSLM;5j.;jz5 ",
" =5=$.DPl%UFmJEM;gFTMmFm%nLKSLM&6j.jjj; ",
" @5g% JPk%KAmJEA;gALMmFM$cKFSLM;6j.h;65 ",
" ;5;g.NPk%KSmFEM&gSLMmFm$cKFSLM&6j.%hl5 ",
" 5jg=.mJc%FSmMJm;gSLMmFM%nAMSLA;6h.5kz; ",
" %jj;.MKz$MMmmmm-6MFMmGm$vmmNLm-6j.jzz; ",
" %gk5.zb5ohjjjjj@&jjjjcjO6jjlvj%--.jjj5 ",
" ;zg%.......XX....XX..   .......X.Xh;5; ",
" 55;j%5;&jjjpyjj=<yjjj3%%hjjjh%5j5%&&55 ",
" 55=;hkpyi3;qCl;688;;;5hh;jzj;h;hj6&5k5 ",
" %5;%557wd658p55jlk524jlj&;jj5khhll6jz; ",
" o%=@OOO%5;55=@;;555w4;5;@@%55;55;5;;;& ",
"                                        "
};
